<?xml version="1.0" standalone="no"?>
<!DOCTYPE svg PUBLIC "-//W3C//DTD SVG 20010904//EN"
 "http://www.w3.org/TR/2001/REC-SVG-20010904/DTD/svg10.dtd">
<svg version="1.0" xmlns="http://www.w3.org/2000/svg"
 width="512.000000pt" height="512.000000pt" viewBox="0 0 512.000000 512.000000"
 preserveAspectRatio="xMidYMid meet">

<g transform="translate(0.000000,512.000000) scale(0.100000,-0.100000)"
fill="#000000" stroke="none">
<path d="M2710 4810 c-438 -40 -826 -300 -1034 -690 -55 -104 -110 -265 -131
-384 -19 -112 -19 -314 0 -434 51 -311 232 -618 475 -804 39 -29 70 -56 70
-59 0 -4 -266 -467 -592 -1030 -325 -563 -598 -1040 -605 -1060 -41 -102 98
-185 169 -100 13 15 291 491 618 1058 l595 1031 35 -15 c271 -118 619 -136
905 -46 394 124 709 433 839 823 57 172 69 259 63 455 -4 138 -10 189 -31 270
-63 248 -164 425 -345 606 -114 113 -206 181 -340 248 -206 104 -460 152 -691
131z m642 -519 c228 -153 374 -395 408 -674 20 -167 -8 -328 -86 -494 -32 -70
-51 -97 -76 -113 -42 -27 -91 -21 -128 15 -45 44 -46 76 -1 174 56 122 74 198
74 316 -1 125 -21 215 -75 323 -48 98 -156 219 -247 278 -99 64 -119 128 -57
190 51 51 94 48 188 -15z"/>
</g>
</svg>
